<svg xmlns="http://www.w3.org/2000/svg" enable-background="new 0 0 55 55" viewBox="0 0 55 55"><path d="M30.66 34.51c-.39-.39-1.02-.39-1.41 0l-4.08 4.08c-.51.51-3.12-.2-5.83-2.91-2.71-2.71-3.43-5.32-2.91-5.83l4.08-4.08c.19-.19.29-.44.29-.71s-.11-.52-.29-.71L8.72 12.58c-.39-.39-1.02-.39-1.41 0l-3.04 3.04c-2.22 2.22-2.35 6.17-.37 11.11 1.88 4.66 5.44 9.76 10.03 14.35 7.21 7.21 15.13 11.41 20.6 11.41 2 0 3.68-.56 4.87-1.75l3.04-3.04c.19-.19.29-.44.29-.71s-.11-.52-.29-.71L30.66 34.51zM37.98 49.32c-3.13 3.13-12.98 0-22.64-9.66-4.41-4.41-7.81-9.27-9.59-13.68-1.64-4.09-1.66-7.36-.07-8.95l2.33-2.33 10.36 10.36L15 28.43c-1.87 1.87.11 5.86 2.91 8.66 2.81 2.81 6.79 4.78 8.66 2.91l3.37-3.37 10.36 10.36L37.98 49.32zM26.95 2.51c-.55 0-1 .45-1 1s.45 1 1 1c12.98 0 23.55 10.56 23.55 23.55 0 .55.45 1 1 1s1-.45 1-1C52.5 13.97 41.04 2.51 26.95 2.51z"/><path d="M26.95,9.52c-0.55,0-1,0.45-1,1s0.45,1,1,1c9.12,0,16.53,7.42,16.53,16.53c0,0.55,0.45,1,1,1s1-0.45,1-1
		C45.49,17.84,37.17,9.52,26.95,9.52z"/><path d="M36.47,28.05c0,0.55,0.45,1,1,1s1-0.45,1-1c0-6.35-5.17-11.52-11.52-11.52c-0.55,0-1,0.45-1,1s0.45,1,1,1
		C32.2,18.54,36.47,22.81,36.47,28.05z"/></svg>